<?xml version="1.0" encoding="UTF-8"?>
<svg width="20px" height="20px" viewBox="0 0 20 20" version="1.1" xmlns="http://www.w3.org/2000/svg" xmlns:xlink="http://www.w3.org/1999/xlink">
    <!-- Generator: Sketch 52.1 (67048) - http://www.bohemiancoding.com/sketch -->
    <title>Artboard Copy 2</title>
    <desc>Created with Sketch.</desc>
    <g id="Artboard-Copy-2" stroke="none" stroke-width="1" fill="none" fill-rule="evenodd">
        <path d="M14.5973563,4.91023047 C13.6416791,3.84741748 12.2337551,3.31197433 10.3355625,3.31197433 C8.43552168,3.31197433 7.01439514,3.84867459 6.03559364,4.91480981 C5.68392376,8.74391118 5.33271915,11.181961 4.96811918,12.2757609 C4.73413223,12.9777218 4.27685421,13.7837944 3.59789877,14.7028688 C3.4338147,14.9249958 3.48086778,15.2380817 3.70299477,15.4021658 C3.78901744,15.4657103 3.89314758,15.5 4.00009525,15.5 C7.07080665,15.5 7.07080665,15.5 10.0585469,15.5 C13.1744388,15.5 14.6005541,15.4999919 16.4137645,15.499952 C16.6898804,15.499952 16.9137165,15.2761159 16.9137165,15 C16.9137165,14.9039113 16.8860262,14.8098581 16.83396,14.7290982 C16.1888727,13.728504 15.7529311,12.918334 15.5246588,12.2878676 C15.2500902,11.5295353 14.9497833,9.10971388 14.5973563,4.91023047 Z" id="Path-6" stroke="#6C5CBE" fill-rule="nonzero"></path>
        <path d="M11.3955043,3.40510309 C11.7381899,2.91072811 11.3617337,1.5 10.5300674,1.5 C9.65252825,1.5 9.22169942,2.91394019 9.60089951,3.41954031 C9.54095161,3.33960977 9.51918381,3.33961049 9.77555603,3.29043475 C10.0159933,3.24431556 10.2084323,3.22069521 10.4329504,3.21954685 C10.6649236,3.21836036 10.8666392,3.23891529 11.136842,3.28178874 C11.3968454,3.32304385 11.4502793,3.32527099 11.3955043,3.40510309 Z" id="Path-9" stroke="#6C5CBE" fill-rule="nonzero"></path>
        <path d="M9.18203399,18.3686318 C8.75927638,17.8049549 8.42089837,15.2464273 10.3761305,15.2464273 C12.3313626,15.2464273 12.0014719,18.0000913 11.6265404,18.5" id="Path-9" stroke="#6C5CBE" fill-rule="nonzero" transform="translate(10.384197, 16.873214) scale(1, -1) translate(-10.384197, -16.873214) "></path>
    </g>
</svg>